<?xml version="1.0" encoding="UTF-8" standalone="no"?>
<svg
   xmlns:dc="http://purl.org/dc/elements/1.1/"
   xmlns:cc="http://creativecommons.org/ns#"
   xmlns:rdf="http://www.w3.org/1999/02/22-rdf-syntax-ns#"
   xmlns:svg="http://www.w3.org/2000/svg"
   xmlns="http://www.w3.org/2000/svg"
   xmlns:sodipodi="http://sodipodi.sourceforge.net/DTD/sodipodi-0.dtd"
   xmlns:inkscape="http://www.inkscape.org/namespaces/inkscape"
   width="679.38147"
   height="200"
   viewBox="0 0 179.75302 52.916667"
   version="1.1"
   id="svg8"
   inkscape:version="1.0.1 (3bc2e813f5, 2020-09-07)"
   sodipodi:docname="logo-glyph.svg">
  <defs
     id="defs2">
    <rect
       x="14.174107"
       y="105.26637"
       width="170.08929"
       height="30.805059"
       id="rect12" />
  </defs>
  <sodipodi:namedview
     id="base"
     pagecolor="#ffffff"
     bordercolor="#666666"
     borderopacity="1.0"
     inkscape:pageopacity="0.0"
     inkscape:pageshadow="2"
     inkscape:zoom="1.6130395"
     inkscape:cx="291.19829"
     inkscape:cy="35.242008"
     inkscape:document-units="mm"
     inkscape:current-layer="layer3"
     inkscape:document-rotation="0"
     showgrid="false"
     inkscape:window-width="1680"
     inkscape:window-height="987"
     inkscape:window-x="112"
     inkscape:window-y="1072"
     inkscape:window-maximized="1"
     units="px" />
  <metadata
     id="metadata5">
    <rdf:RDF>
      <cc:Work
         rdf:about="">
        <dc:format>image/svg+xml</dc:format>
        <dc:type
           rdf:resource="http://purl.org/dc/dcmitype/StillImage" />
        <dc:title></dc:title>
      </cc:Work>
    </rdf:RDF>
  </metadata>
  <g
     inkscape:groupmode="layer"
     id="layer3"
     inkscape:label="Layer 1">
    <path
       id="path918-0"
       style="display:inline;fill:none;fill-opacity:1;stroke:#96c8ff;stroke-width:1.764;stroke-linecap:butt;stroke-linejoin:miter;stroke-miterlimit:4;stroke-dasharray:none;stroke-opacity:1"
       d="m 80.720186,37.128771 0.67666,4.73659 m -4.330605,-6.83423 -1.488642,1.15032 m 8.661197,-0.94732 2.3683,1.62397 M 77.201571,18.859055 74.494948,16.896759 m 9.540848,2.097626 3.33203,-1.878912 m -6.71531,-0.421716 0.94732,-7.5785514 m -4.398263,9.7438494 3.450943,-2.165298 3.38328,2.300628 0.203,16.239746 -3.51861,1.89464 -3.653945,-2.09764 z m -3.586279,15.969086 -0.06766,-16.848733 8.052212,-8.8642024 7.44321,9.8115194 0.203,16.036746 -7.84921,6.90189 z" />
    <g
       aria-label="Ecco online"
       id="text18-0"
       style="font-size:22.5778px;line-height:1.25;font-family:'DS CenturyCapitals';-inkscape-font-specification:'DS CenturyCapitals, Normal';letter-spacing:0px;word-spacing:0px;fill:#007dff;fill-opacity:1;stroke-width:0.264583"
       transform="translate(-12.418464,-79.708654)">
      <path
         d="m 22.567297,99.142432 q 0.135466,2.889958 0.135466,6.208898 0,0.24835 -0.02258,0.88053 0,0.6096 -0.02258,1.4224 0,0.8128 -0.02258,1.71592 -0.02258,0.90311 -0.04516,1.73849 0,0.83538 -0.02258,1.49013 0,0.65476 0,0.97085 -0.406401,0.0903 -0.993424,0.18062 -0.564445,0.0677 -1.33209,0.11289 l -0.135467,0.49671 q 0.406401,-0.0226 1.399824,-0.0903 0.993423,-0.0452 2.551292,-0.0452 0.338667,0 0.925689,0 0.587023,0.0226 1.286935,0.0452 0.699912,0.0226 1.422401,0.0452 0.72249,0.0226 1.332091,0.0452 0.632178,0.0226 1.061156,0.0452 0.451556,0.0226 0.564445,0.0452 v 1.35467 l 0.474134,0.0903 q 0.04516,-0.65476 0.270934,-2.28036 0.225778,-1.64818 0.474134,-2.91253 l -0.51929,0.13546 q -0.158044,0.76765 -0.293511,1.26436 -0.112889,0.47413 -0.2032,0.69991 -1.151468,0.74507 -5.418673,0.8128 -0.02258,-0.38382 -0.04516,-1.016 0,-0.65475 -0.02258,-1.4224 0,-0.76764 -0.02258,-1.58045 0,-0.8128 -0.02258,-1.51271 0,-0.69991 -0.02258,-1.2192 0,-0.51929 0,-0.69991 3.364092,0 4.402671,0.51929 0,0.0452 -0.02258,0.27093 -0.02258,0.22578 -0.04516,0.49671 0,0.27094 -0.02258,0.49671 0,0.22578 0,0.24836 l 0.451557,0.15805 q 0.06773,-0.47414 0.158044,-1.08374 0.09031,-0.6096 0.2032,-1.37725 0.225778,-1.51271 0.270934,-1.76106 l -0.496712,0.0451 q -0.06773,0.51929 -0.225778,0.97085 -0.857956,0.29351 -4.673604,0.38382 0,-3.20605 0.135466,-6.457251 0.587023,0 1.44498,0.06773 0.857956,0.06773 1.670757,0.203201 0.812801,0.135466 1.377246,0.316089 0.587023,0.158045 0.632178,0.361251 v 1.58044 l 0.451556,0.18063 q 0.02258,-0.13547 0.04516,-0.60961 0.04515,-0.47413 0.135467,-1.309511 0.09031,-0.993423 0.158044,-1.670757 0.09031,-0.699912 0.135467,-1.083735 l -0.541867,0.09031 q -0.04516,0.316089 -0.09031,0.677334 -0.04516,0.361244 -0.06773,0.383822 -0.158044,0.04516 -1.580446,0.112889 -1.422401,0.06773 -4.199471,0.06773 -0.293511,0 -0.993423,0 -0.677334,-0.02258 -1.467557,-0.02258 -0.767645,-0.02258 -1.467557,-0.04516 -0.677334,-0.02258 -0.970846,-0.02258 l 0.09031,0.428979 q 0.857956,0.112889 1.444979,0.2032 0.6096,0.09031 0.92569,0.158044 z m 8.421519,2.686758 0.04516,-0.0451 h -0.02258 q 0,0 -0.02258,0.0226 0,0 0,0.0226 z"
         style="font-size:22.5778px;fill:#007dff;fill-opacity:1;stroke-width:0.264583"
         id="path994" />
      <path
         d="m 48.305965,103.49995 q 0,-0.36125 0.04516,-1.2192 0.04516,-0.85796 0.135467,-2.28036 0.112889,-1.422403 0.180623,-2.280359 0.09031,-0.857956 0.135466,-1.174046 l -0.541867,0.09031 q 0,0.09031 -0.06773,0.383822 -0.04516,0.293512 -0.135467,0.609601 -0.06773,0.316089 -0.135467,0.6096 -0.06773,0.293512 -0.09031,0.383823 -2.483558,-0.587023 -4.71876,-0.587023 -2.528714,0 -4.470405,0.72249 -1.919113,0.722489 -3.228625,1.919112 -1.309513,1.17405 -1.986847,2.68676 -0.654756,1.49014 -0.654756,3.048 0,2.1449 0.857956,3.70276 0.880535,1.55787 2.280358,2.57387 1.422402,0.99343 3.206048,1.46756 1.806224,0.47413 3.657604,0.47413 1.828801,0 3.454403,-0.38382 1.625602,-0.36124 2.709336,-0.99342 l 0.293512,-0.97085 q -1.151468,0.6096 -2.393247,0.94827 -1.241779,0.33867 -2.619025,0.33867 -1.715913,0 -3.296359,-0.54187 -1.580446,-0.56445 -2.799647,-1.6256 -1.196624,-1.06116 -1.919113,-2.57387 -0.72249,-1.53529 -0.72249,-3.47698 0,-0.94827 0.383823,-2.09974 0.4064,-1.15147 1.219201,-2.12231 0.835378,-0.99342 2.099735,-1.648183 1.286935,-0.677334 3.048003,-0.677334 0.970846,0 1.919113,0.293512 0.948268,0.293511 1.693335,0.72249 0.745068,0.428975 1.219202,0.880535 0.496711,0.45156 0.587023,0.74507 0.135466,1.06115 0.135466,1.89653 z"
         style="font-size:22.5778px;fill:#007dff;fill-opacity:1;stroke-width:0.264583"
         id="path996" />
      <path
         d="m 65.668274,103.49995 q 0,-0.36125 0.04516,-1.2192 0.04515,-0.85796 0.135467,-2.28036 0.112889,-1.422403 0.180622,-2.280359 0.09031,-0.857956 0.135467,-1.174046 l -0.541867,0.09031 q 0,0.09031 -0.06773,0.383822 -0.04515,0.293512 -0.135467,0.609601 -0.06773,0.316089 -0.135466,0.6096 -0.06773,0.293512 -0.09031,0.383823 -2.483558,-0.587023 -4.71876,-0.587023 -2.528714,0 -4.470404,0.72249 -1.919114,0.722489 -3.228626,1.919112 -1.309512,1.17405 -1.986846,2.68676 -0.654757,1.49014 -0.654757,3.048 0,2.1449 0.857957,3.70276 0.880534,1.55787 2.280358,2.57387 1.422401,0.99343 3.206047,1.46756 1.806224,0.47413 3.657604,0.47413 1.828802,0 3.454404,-0.38382 1.625601,-0.36124 2.709336,-0.99342 l 0.293511,-0.97085 q -1.151468,0.6096 -2.393247,0.94827 -1.241779,0.33867 -2.619025,0.33867 -1.715913,0 -3.296359,-0.54187 -1.580446,-0.56445 -2.799647,-1.6256 -1.196623,-1.06116 -1.919113,-2.57387 -0.72249,-1.53529 -0.72249,-3.47698 0,-0.94827 0.383823,-2.09974 0.4064,-1.15147 1.219201,-2.12231 0.835379,-0.99342 2.099736,-1.648183 1.286934,-0.677334 3.048003,-0.677334 0.970845,0 1.919113,0.293512 0.948268,0.293511 1.693335,0.72249 0.745067,0.428975 1.219201,0.880535 0.496712,0.45156 0.587023,0.74507 0.135467,1.06115 0.135467,1.89653 z"
         style="font-size:22.5778px;fill:#007dff;fill-opacity:1;stroke-width:0.264583"
         id="path998" />
      <path
         d="m 76.528176,98.081276 q -2.280358,0.2032 -3.951115,0.970845 -1.670757,0.767646 -2.77707,1.964269 -1.106312,1.17405 -1.670757,2.68676 -0.564445,1.51271 -0.632178,3.16089 0,0.76765 0.225778,1.64818 0.225778,0.85796 0.699912,1.71591 0.496711,0.85796 1.241779,1.67076 0.767645,0.79022 1.828802,1.39982 1.061156,0.6096 2.438402,0.97085 1.377246,0.36124 3.115737,0.36124 2.167468,0 3.905959,-0.69991 1.738491,-0.69991 2.957692,-1.91911 1.241779,-1.2192 1.896535,-2.86738 0.654756,-1.64818 0.654756,-3.52214 0,-1.6256 -0.6096,-3.00285 -0.609601,-1.39982 -1.761069,-2.41582 -1.12889,-1.016002 -2.754491,-1.580447 -1.603024,-0.587023 -3.612448,-0.587023 -0.383823,0 -0.699912,0.02258 -0.293512,0 -0.496712,0.02258 z m -1.490135,1.016001 q 0.361245,-0.112889 0.835379,-0.135467 0.474134,-0.04516 0.970845,-0.04516 1.512713,0 2.77707,0.767646 1.264357,0.745074 2.167469,1.941694 0.92569,1.17405 1.422401,2.66418 0.51929,1.49014 0.51929,2.93512 0,1.53529 -0.541868,2.75449 -0.519289,1.19662 -1.399823,2.032 -0.880535,0.8128 -2.009425,1.26436 -1.106312,0.42897 -2.280357,0.42897 -1.354668,0 -2.664181,-0.6096 -1.309512,-0.63218 -2.348091,-1.71591 -1.038579,-1.08373 -1.670757,-2.55129 -0.632179,-1.49014 -0.632179,-3.2512 0,-1.08374 0.270934,-2.09974 0.270933,-1.03858 0.857956,-1.89654 0.609601,-0.85795 1.512713,-1.51271 0.92569,-0.654758 2.212624,-0.970847 z"
         style="font-size:22.5778px;fill:#007dff;fill-opacity:1;stroke-width:0.264583"
         id="path1000" />
      <path
         d="m 109.94327,98.081276 q -2.28036,0.2032 -3.95112,0.970845 -1.67075,0.767646 -2.77707,1.964269 -1.10631,1.17405 -1.67075,2.68676 -0.56445,1.51271 -0.63218,3.16089 0,0.76765 0.22578,1.64818 0.22577,0.85796 0.69991,1.71591 0.49671,0.85796 1.24178,1.67076 0.76764,0.79022 1.8288,1.39982 1.06116,0.6096 2.4384,0.97085 1.37725,0.36124 3.11574,0.36124 2.16747,0 3.90596,-0.69991 1.73849,-0.69991 2.95769,-1.91911 1.24178,-1.2192 1.89653,-2.86738 0.65476,-1.64818 0.65476,-3.52214 0,-1.6256 -0.6096,-3.00285 -0.6096,-1.39982 -1.76107,-2.41582 -1.12889,-1.016002 -2.75449,-1.580447 -1.60302,-0.587023 -3.61245,-0.587023 -0.38382,0 -0.69991,0.02258 -0.29351,0 -0.49671,0.02258 z m -1.49014,1.016001 q 0.36125,-0.112889 0.83538,-0.135467 0.47414,-0.04516 0.97085,-0.04516 1.51271,0 2.77707,0.767646 1.26435,0.745074 2.16747,1.941694 0.92569,1.17405 1.4224,2.66418 0.51929,1.49014 0.51929,2.93512 0,1.53529 -0.54187,2.75449 -0.51929,1.19662 -1.39982,2.032 -0.88054,0.8128 -2.00943,1.26436 -1.10631,0.42897 -2.28036,0.42897 -1.35466,0 -2.66418,-0.6096 -1.30951,-0.63218 -2.34809,-1.71591 -1.03858,-1.08373 -1.67076,-2.55129 -0.63217,-1.49014 -0.63217,-3.2512 0,-1.08374 0.27093,-2.09974 0.27093,-1.03858 0.85796,-1.89654 0.6096,-0.85795 1.51271,-1.51271 0.92569,-0.654758 2.21262,-0.970847 z"
         style="font-size:22.5778px;fill:#007dff;fill-opacity:1;stroke-width:0.264583"
         id="path1002" />
      <path
         d="m 119.24529,114.31471 q 0.18062,0 0.6096,-0.0226 0.42897,-0.0226 0.90311,-0.0452 0.47413,-0.0226 0.88053,-0.0226 0.42898,-0.0226 0.6096,-0.0226 0.2032,0 0.67734,0.0226 0.49671,0 1.03858,0.0226 0.54186,0.0226 1.016,0.0452 0.49671,0.0226 0.69991,0.0226 l -0.0677,-0.45155 q -0.0903,0 -0.49672,-0.0226 -0.38382,-0.0452 -0.8128,-0.0903 -0.42898,-0.0677 -0.79022,-0.11289 -0.36124,-0.0677 -0.38382,-0.11289 -0.0903,-0.33867 -0.15805,-1.58044 -0.0677,-1.24178 -0.15804,-3.40925 -0.0677,-2.16747 -0.11289,-4.19947 -0.0452,-2.03201 -0.0677,-3.95112 1.4224,1.71591 3.048,3.68018 1.64818,1.96427 3.54471,4.15432 0.97085,1.15147 1.69334,1.98684 0.74507,0.83538 1.4224,1.62561 0.67733,0.76764 1.39982,1.60302 0.74507,0.8128 1.73849,1.94169 0,-0.42898 0.0226,-1.26436 0.0452,-0.83537 0.0677,-1.85138 0.0452,-1.016 0.0903,-2.14489 0.0452,-1.12889 0.0677,-2.14489 0.0452,-1.03858 0.0677,-1.85138 0.0226,-0.83538 0.0226,-1.28693 0,-0.63218 0.0226,-1.39983 0.0226,-0.76764 0.0677,-1.53529 0.0677,-0.79022 0.15805,-1.49013 0.0903,-0.72249 0.2032,-1.264358 -0.0452,0 0.15804,-0.04515 0.22578,-0.04516 0.51929,-0.112889 0.31609,-0.06773 0.6096,-0.112889 0.31609,-0.06773 0.42898,-0.06773 l 0.0903,-0.451556 q -0.2032,0 -0.6096,0.04516 -0.38382,0.02258 -0.83538,0.04516 -0.42898,0.02258 -0.83538,0.04515 -0.38382,0.02258 -0.58702,0.02258 -0.22578,0 -0.69991,-0.02258 -0.45156,-0.02258 -0.97085,-0.04515 -0.51929,-0.02258 -0.99342,-0.04516 -0.45156,-0.04516 -0.67733,-0.04516 l 0.13546,0.428979 q 0.13547,0 0.45156,0.04515 0.31609,0.04516 0.67733,0.112889 0.38383,0.04516 0.69992,0.09031 0.31608,0.04516 0.45155,0.06773 0.15805,0.948264 0.22578,1.828804 0.0903,0.88053 0.11289,1.78364 0.0452,0.90312 0.0452,1.89654 0.0226,0.97085 0.0452,2.12231 0.0451,2.91254 0.0677,4.15432 -0.94826,-1.12889 -2.032,-2.39325 -1.06116,-1.26435 -2.32551,-2.73191 -1.8288,-2.16747 -3.38667,-4.08658 -1.53529,-1.919118 -2.61903,-3.409253 -1.24178,0.06773 -2.6416,0.09031 -1.37725,0 -2.52871,0.09031 l 0.15804,0.474133 q 0.0903,0 0.45156,0.04516 0.38382,0.02258 0.79022,0.06773 0.42898,0.02258 0.76764,0.09031 0.36125,0.04515 0.42898,0.06773 -0.31609,13.23059 -0.6096,14.3369 -0.15804,0.0677 -0.45155,0.11289 -0.27094,0.0452 -0.58703,0.0903 -0.29351,0.0452 -0.54186,0.0903 -0.24836,0.0226 -0.31609,0.0452 z"
         style="font-size:22.5778px;fill:#007dff;fill-opacity:1;stroke-width:0.264583"
         id="path1004" />
      <path
         d="m 149.68013,112.32787 q -0.65476,0.47413 -2.09974,0.83538 -1.4224,0.36124 -3.31894,0.36124 -0.0226,0 -0.13546,-7.6313 0,-0.22577 0,-0.8128 0.0226,-0.6096 0.0226,-1.35466 0.0226,-0.74507 0.0226,-1.55787 0.0226,-0.8128 0.0226,-1.46756 0.0226,-0.67733 0.0452,-1.106312 0.0226,-0.451556 0.0226,-0.451556 0.76765,-0.09031 1.39983,-0.180622 0.63218,-0.09031 1.28693,-0.180622 l 0.0903,-0.428979 q -0.27093,0 -0.85795,0.02258 -0.56445,0.02258 -1.2192,0.04516 -0.63218,0 -1.2192,0.02258 -0.56445,0 -0.83538,0 -0.27094,0 -0.8128,0 -0.54187,-0.02258 -1.15147,-0.02258 -0.58702,-0.02258 -1.15147,-0.04516 -0.54187,-0.02258 -0.8128,-0.02258 l 0.0903,0.428979 q 0.42898,0.04515 0.65476,0.09031 0.24835,0.02258 0.47413,0.06773 0.22578,0.02258 0.49671,0.06773 0.27094,0.02258 0.79023,0.09031 0.0226,3.657602 0.0226,6.141162 0,2.48356 0,4.064 0,1.08374 0,1.8288 0,0.74507 0,1.24178 0,0.47414 -0.0226,0.76765 0,0.27093 0,0.42898 -0.33867,0.0903 -0.94827,0.15804 -0.6096,0.0677 -1.46756,0.13547 l -0.0903,0.45155 q 0.54187,-0.0226 1.33209,-0.0452 0.79022,0 1.60302,-0.0226 0.8128,0 1.49014,0 0.69991,0 1.03858,0 0.56444,0 1.2192,0 0.65475,0.0226 1.33209,0.0452 0.67733,0.0226 1.30951,0.0226 0.63218,0.0226 1.12889,0.0452 0,0.18062 0,0.54187 0,0.38382 -0.0226,0.79022 0,0.42898 -0.0226,0.8128 0,0.38382 -0.0226,0.54187 l 0.49671,0.0903 q 0.0226,-0.38382 0.0677,-0.97085 0.0677,-0.58702 0.18063,-1.37724 0.11288,-0.79022 0.24835,-1.58045 0.13547,-0.79022 0.27093,-1.58044 0.15805,-0.79023 0.24836,-1.26436 0.11289,-0.49671 0.18062,-0.67733 l -0.56444,0.13546 q -0.47414,1.67076 -0.8128,2.50614 z"
         style="font-size:22.5778px;fill:#007dff;fill-opacity:1;stroke-width:0.264583"
         id="path1006" />
      <path
         d="m 152.09592,98.781188 q 1.08374,0.158044 1.67076,0.248355 0.58702,0.06773 0.69991,0.112889 0.0226,1.309508 0.0903,3.364088 0.0677,2.03201 0.0677,4.42525 0,1.10632 -0.0226,2.21263 -0.0226,1.08373 -0.0452,2.00942 -0.0226,0.90311 -0.0677,1.55787 -0.0226,0.63218 -0.0226,0.8128 -0.24835,0.0452 -0.63217,0.11289 -0.36125,0.0452 -0.74507,0.0903 -0.36125,0.0452 -0.65476,0.0903 -0.29351,0.0226 -0.38382,0.0452 l -0.0903,0.45155 q 0.13546,0 0.65475,-0.0226 0.54187,-0.0226 1.12889,-0.0452 0.6096,0 1.12889,-0.0226 0.51929,0 0.67734,0 0.22578,0 0.8128,0 0.6096,0.0226 1.28693,0.0226 0.67734,0.0226 1.28694,0.0452 0.6096,0.0226 0.83538,0.0226 l -0.13547,-0.45155 q -0.0903,0 -0.45156,-0.0452 -0.33866,-0.0451 -0.74506,-0.0903 -0.4064,-0.0451 -0.76765,-0.0903 -0.33867,-0.0677 -0.42898,-0.11289 -0.0452,-0.58702 -0.13546,-8.82792 0,-0.15804 0,-0.6096 0,-0.45156 0,-1.03858 0.0226,-0.58702 0.0226,-1.24178 0.0226,-0.65475 0.0452,-1.19662 0.0226,-0.56445 0.0226,-0.970846 0.0226,-0.4064 0.0452,-0.496712 1.17405,-0.158044 1.76107,-0.225778 0.58702,-0.09031 0.63218,-0.09031 l 0.13547,-0.474134 q -0.51929,0.04516 -1.30952,0.09031 -0.79022,0.04515 -1.85138,0.04515 -0.24835,0 -0.92569,-0.02258 -0.65475,-0.02258 -1.39982,-0.04515 -0.74507,-0.02258 -1.4224,-0.04516 -0.65476,-0.02258 -0.90311,-0.02258 z"
         style="font-size:22.5778px;fill:#007dff;fill-opacity:1;stroke-width:0.264583"
         id="path1008" />
      <path
         d="m 160.67548,114.31471 q 0.18063,0 0.60961,-0.0226 0.42897,-0.0226 0.90311,-0.0452 0.47413,-0.0226 0.88053,-0.0226 0.42898,-0.0226 0.6096,-0.0226 0.2032,0 0.67734,0.0226 0.49671,0 1.03857,0.0226 0.54187,0.0226 1.01601,0.0452 0.49671,0.0226 0.69991,0.0226 l -0.0677,-0.45155 q -0.0903,0 -0.49671,-0.0226 -0.38382,-0.0452 -0.8128,-0.0903 -0.42898,-0.0677 -0.79022,-0.11289 -0.36125,-0.0677 -0.38382,-0.11289 -0.0903,-0.33867 -0.15805,-1.58044 -0.0677,-1.24178 -0.15804,-3.40925 -0.0677,-2.16747 -0.11289,-4.19947 -0.0452,-2.03201 -0.0677,-3.95112 1.42241,1.71591 3.04801,3.68018 1.64818,1.96427 3.54471,4.15432 0.97085,1.15147 1.69334,1.98684 0.74506,0.83538 1.4224,1.62561 0.67733,0.76764 1.39982,1.60302 0.74507,0.8128 1.73849,1.94169 0,-0.42898 0.0226,-1.26436 0.0452,-0.83537 0.0677,-1.85138 0.0452,-1.016 0.0903,-2.14489 0.0452,-1.12889 0.0677,-2.14489 0.0452,-1.03858 0.0677,-1.85138 0.0226,-0.83538 0.0226,-1.28693 0,-0.63218 0.0226,-1.39983 0.0226,-0.76764 0.0677,-1.53529 0.0677,-0.79022 0.15805,-1.49013 0.0903,-0.72249 0.2032,-1.264358 -0.0452,0 0.15804,-0.04515 0.22578,-0.04516 0.51929,-0.112889 0.31609,-0.06773 0.6096,-0.112889 0.31609,-0.06773 0.42898,-0.06773 l 0.0903,-0.451556 q -0.2032,0 -0.6096,0.04516 -0.38382,0.02258 -0.83538,0.04516 -0.42898,0.02258 -0.83538,0.04515 -0.38382,0.02258 -0.58702,0.02258 -0.22578,0 -0.69991,-0.02258 -0.45156,-0.02258 -0.97085,-0.04515 -0.51929,-0.02258 -0.99342,-0.04516 -0.45156,-0.04516 -0.67733,-0.04516 l 0.13546,0.428979 q 0.13547,0 0.45156,0.04515 0.31609,0.04516 0.67733,0.112889 0.38382,0.04516 0.69991,0.09031 0.31609,0.04516 0.45156,0.06773 0.15804,0.948264 0.22578,1.828804 0.0903,0.88053 0.11289,1.78364 0.0452,0.90312 0.0452,1.89654 0.0226,0.97085 0.0452,2.12231 0.0452,2.91254 0.0677,4.15432 -0.94827,-1.12889 -2.032,-2.39325 -1.06116,-1.26435 -2.32551,-2.73191 -1.82881,-2.16747 -3.38667,-4.08658 -1.53529,-1.919118 -2.61903,-3.409253 -1.24178,0.06773 -2.6416,0.09031 -1.37725,0 -2.52872,0.09031 l 0.15805,0.474133 q 0.0903,0 0.45156,0.04516 0.38382,0.02258 0.79022,0.06773 0.42898,0.02258 0.76764,0.09031 0.36125,0.04515 0.42898,0.06773 -0.31609,13.23059 -0.6096,14.3369 -0.15804,0.0677 -0.45156,0.11289 -0.27093,0.0452 -0.58702,0.0903 -0.29351,0.0452 -0.54187,0.0903 -0.24835,0.0226 -0.31608,0.0452 z"
         style="font-size:22.5778px;fill:#007dff;fill-opacity:1;stroke-width:0.264583"
         id="path1010" />
      <path
         d="m 182.86944,99.142432 q 0.13546,2.889958 0.13546,6.208898 0,0.24835 -0.0226,0.88053 0,0.6096 -0.0226,1.4224 0,0.8128 -0.0226,1.71592 -0.0226,0.90311 -0.0452,1.73849 0,0.83538 -0.0226,1.49013 0,0.65476 0,0.97085 -0.4064,0.0903 -0.99343,0.18062 -0.56444,0.0677 -1.33209,0.11289 l -0.13546,0.49671 q 0.4064,-0.0226 1.39982,-0.0903 0.99342,-0.0452 2.55129,-0.0452 0.33867,0 0.92569,0 0.58702,0.0226 1.28694,0.0452 0.69991,0.0226 1.4224,0.0452 0.72249,0.0226 1.33209,0.0452 0.63218,0.0226 1.06115,0.0452 0.45156,0.0226 0.56445,0.0452 v 1.35467 l 0.47413,0.0903 q 0.0452,-0.65476 0.27094,-2.28036 0.22577,-1.64818 0.47413,-2.91253 l -0.51929,0.13546 q -0.15804,0.76765 -0.29351,1.26436 -0.11289,0.47413 -0.2032,0.69991 -1.15147,0.74507 -5.41867,0.8128 -0.0226,-0.38382 -0.0452,-1.016 0,-0.65475 -0.0226,-1.4224 0,-0.76764 -0.0226,-1.58045 0,-0.8128 -0.0226,-1.51271 0,-0.69991 -0.0226,-1.2192 0,-0.51929 0,-0.69991 3.36409,0 4.40267,0.51929 0,0.0452 -0.0226,0.27093 -0.0226,0.22578 -0.0451,0.49671 0,0.27094 -0.0226,0.49671 0,0.22578 0,0.24836 l 0.45156,0.15805 q 0.0677,-0.47414 0.15804,-1.08374 0.0903,-0.6096 0.2032,-1.37725 0.22578,-1.51271 0.27093,-1.76106 l -0.49671,0.0451 q -0.0677,0.51929 -0.22578,0.97085 -0.85795,0.29351 -4.6736,0.38382 0,-3.20605 0.13547,-6.457251 0.58702,0 1.44498,0.06773 0.85795,0.06773 1.67075,0.203201 0.8128,0.135466 1.37725,0.316089 0.58702,0.158045 0.63218,0.361251 v 1.58044 l 0.45155,0.18063 q 0.0226,-0.13547 0.0452,-0.60961 0.0452,-0.47413 0.13547,-1.309511 0.0903,-0.993423 0.15804,-1.670757 0.0903,-0.699912 0.13547,-1.083735 l -0.54187,0.09031 q -0.0452,0.316089 -0.0903,0.677334 -0.0452,0.361244 -0.0677,0.383822 -0.15805,0.04516 -1.58045,0.112889 -1.4224,0.06773 -4.19947,0.06773 -0.29351,0 -0.99342,0 -0.67734,-0.02258 -1.46756,-0.02258 -0.76765,-0.02258 -1.46756,-0.04516 -0.67733,-0.02258 -0.97084,-0.02258 l 0.0903,0.428979 q 0.85795,0.112889 1.44498,0.2032 0.6096,0.09031 0.92569,0.158044 z m 8.42152,2.686758 0.0451,-0.0451 h -0.0226 q 0,0 -0.0226,0.0226 0,0 0,0.0226 z"
         style="font-size:22.5778px;fill:#007dff;fill-opacity:1;stroke-width:0.264583"
         id="path1012" />
    </g>
  </g>
</svg>
